<svg width="320" height="128" viewBox="0 0 320 128" fill="none" xmlns="http://www.w3.org/2000/svg">
<circle cx="99.5" cy="63.5" r="40.5" fill="#FCE570"/>
<circle cx="51" cy="64" r="30" fill="#414141"/>
<path d="M167.016 72.232C167.016 73.6 166.704 74.74 166.08 75.652C165.456 76.564 164.628 77.296 163.596 77.848C162.588 78.376 161.484 78.76 160.284 79C159.108 79.216 157.956 79.324 156.828 79.324C155.364 79.324 153.984 79.096 152.688 78.64C152.16 78.448 151.644 78.244 151.14 78.028C150.636 77.788 150.108 77.596 149.556 77.452C149.46 76.684 149.292 75.844 149.052 74.932C148.836 74.02 148.728 73.192 148.728 72.448C148.728 72.112 148.776 71.86 148.872 71.692C148.992 71.5 149.244 71.404 149.628 71.404C149.964 71.404 150.18 71.488 150.276 71.656C150.372 71.8 150.444 72.004 150.492 72.268C150.588 72.604 150.672 72.94 150.744 73.276C150.816 73.588 150.9 73.912 150.996 74.248C151.476 75.688 152.184 76.696 153.12 77.272C154.08 77.848 155.304 78.136 156.792 78.136C158.016 78.136 159.108 77.968 160.068 77.632C161.052 77.272 161.82 76.696 162.372 75.904C162.948 75.112 163.236 74.056 163.236 72.736C163.236 71.704 162.888 70.78 162.192 69.964C161.496 69.124 160.728 68.464 159.888 67.984C159.696 67.864 159.492 67.756 159.276 67.66C159.06 67.564 158.844 67.468 158.628 67.372C157.884 66.988 157.128 66.604 156.36 66.22C155.616 65.836 154.86 65.464 154.092 65.104C153.348 64.72 152.58 64.24 151.788 63.664C151.02 63.064 150.36 62.38 149.808 61.612C149.28 60.844 149.016 60.004 149.016 59.092C149.016 57.556 149.424 56.284 150.24 55.276C151.056 54.268 152.1 53.512 153.372 53.008C154.644 52.504 155.964 52.252 157.332 52.252C158.316 52.252 159.192 52.372 159.96 52.612C160.752 52.852 161.532 53.104 162.3 53.368C163.068 53.608 163.908 53.776 164.82 53.872C164.892 54.592 164.964 55.312 165.036 56.032C165.108 56.752 165.216 57.472 165.36 58.192C165.384 58.288 165.396 58.384 165.396 58.48C165.42 58.576 165.432 58.672 165.432 58.768C165.432 59.152 165.3 59.404 165.036 59.524C164.796 59.62 164.52 59.668 164.208 59.668C163.896 59.668 163.728 59.608 163.704 59.488C163.68 59.368 163.644 59.188 163.596 58.948C163.284 57.028 162.624 55.588 161.616 54.628C160.608 53.644 159.096 53.152 157.08 53.152C155.592 53.152 154.428 53.548 153.588 54.34C152.772 55.132 152.364 56.284 152.364 57.796C152.364 58.804 152.628 59.656 153.156 60.352C153.684 61.048 154.38 61.66 155.244 62.188C156.132 62.692 157.092 63.172 158.124 63.628C159.18 64.084 160.224 64.552 161.256 65.032C162.288 65.512 163.236 66.076 164.1 66.724C164.988 67.348 165.696 68.104 166.224 68.992C166.752 69.88 167.016 70.96 167.016 72.232ZM195.015 65.752C195.015 64.36 194.859 62.944 194.547 61.504C194.259 60.064 193.779 58.732 193.107 57.508C192.435 56.284 191.535 55.3 190.407 54.556C189.279 53.788 187.887 53.404 186.231 53.404C184.623 53.404 183.255 53.8 182.127 54.592C180.999 55.384 180.087 56.416 179.391 57.688C178.695 58.936 178.179 60.292 177.843 61.756C177.531 63.196 177.375 64.588 177.375 65.932C177.375 67.348 177.519 68.776 177.807 70.216C178.095 71.632 178.575 72.94 179.247 74.14C179.919 75.316 180.819 76.264 181.947 76.984C183.099 77.704 184.527 78.064 186.231 78.064C187.935 78.064 189.351 77.692 190.479 76.948C191.607 76.204 192.495 75.232 193.143 74.032C193.815 72.808 194.295 71.476 194.583 70.036C194.871 68.596 195.015 67.168 195.015 65.752ZM198.939 65.644C198.939 68.308 198.447 70.66 197.463 72.7C196.503 74.716 195.075 76.288 193.179 77.416C191.307 78.544 188.991 79.108 186.231 79.108C183.543 79.108 181.239 78.568 179.319 77.488C177.423 76.384 175.971 74.848 174.963 72.88C173.955 70.888 173.451 68.572 173.451 65.932C173.451 64.084 173.751 62.344 174.351 60.712C174.951 59.08 175.815 57.64 176.943 56.392C178.071 55.144 179.415 54.172 180.975 53.476C182.559 52.756 184.311 52.396 186.231 52.396C188.919 52.396 191.199 52.96 193.071 54.088C194.967 55.192 196.419 56.74 197.427 58.732C198.435 60.7 198.939 63.004 198.939 65.644ZM227.57 70.864C227.57 71.032 227.558 71.212 227.534 71.404C227.51 71.572 227.474 71.752 227.426 71.944C227.258 73 227.114 74.08 226.994 75.184C226.898 76.264 226.754 77.332 226.562 78.388C226.562 78.508 226.514 78.616 226.418 78.712C226.25 78.856 226.046 78.928 225.806 78.928C224.63 78.928 223.454 78.916 222.278 78.892C221.102 78.868 219.914 78.856 218.714 78.856C217.25 78.856 215.786 78.856 214.322 78.856C212.882 78.856 211.43 78.88 209.966 78.928C209.15 78.952 208.346 78.976 207.554 79C206.762 79.048 205.958 79.072 205.142 79.072C204.854 79.072 204.71 78.904 204.71 78.568C204.71 78.232 204.878 78.064 205.214 78.064C205.454 78.064 205.682 78.076 205.898 78.1C206.138 78.1 206.366 78.1 206.582 78.1C206.918 78.1 207.254 78.04 207.59 77.92C207.95 77.776 208.13 77.512 208.13 77.128V55.852C208.13 55.372 208.118 54.976 208.094 54.664C208.07 54.328 207.95 54.076 207.734 53.908C207.542 53.74 207.17 53.656 206.618 53.656C206.378 53.656 206.15 53.668 205.934 53.692C205.718 53.716 205.49 53.728 205.25 53.728C205.058 53.728 204.938 53.68 204.89 53.584C204.842 53.464 204.818 53.32 204.818 53.152C204.818 53.008 204.83 52.888 204.854 52.792C204.902 52.672 205.01 52.612 205.178 52.612C205.97 52.612 206.75 52.624 207.518 52.648C208.31 52.672 209.102 52.684 209.894 52.684C210.806 52.684 211.73 52.672 212.666 52.648C213.602 52.624 214.526 52.612 215.438 52.612C215.606 52.612 215.702 52.672 215.726 52.792C215.774 52.888 215.798 52.996 215.798 53.116C215.798 53.212 215.774 53.332 215.726 53.476C215.702 53.596 215.606 53.656 215.438 53.656C215.126 53.656 214.814 53.656 214.502 53.656C214.214 53.632 213.914 53.62 213.602 53.62C213.218 53.62 212.834 53.668 212.45 53.764C212.066 53.86 211.874 54.16 211.874 54.664C211.874 55.504 211.862 56.344 211.838 57.184C211.838 58.024 211.838 58.864 211.838 59.704V70.324C211.838 71.38 211.838 72.448 211.838 73.528C211.862 74.608 211.874 75.676 211.874 76.732C211.874 77.14 212.042 77.44 212.378 77.632C212.714 77.8 213.098 77.896 213.53 77.92C213.962 77.944 214.322 77.956 214.61 77.956C215.666 77.956 216.722 77.932 217.778 77.884C218.834 77.836 219.878 77.728 220.91 77.56C221.582 77.44 222.218 77.212 222.818 76.876C223.442 76.516 223.982 76.072 224.438 75.544C225.038 74.848 225.494 74.104 225.806 73.312C226.118 72.496 226.43 71.68 226.742 70.864C226.814 70.696 226.898 70.6 226.994 70.576C227.09 70.552 227.21 70.54 227.354 70.54C227.426 70.54 227.474 70.588 227.498 70.684C227.546 70.756 227.57 70.816 227.57 70.864ZM254.315 72.844C254.315 73.276 254.279 73.72 254.207 74.176C254.135 74.608 254.075 75.04 254.027 75.472C253.955 75.952 253.907 76.444 253.883 76.948C253.859 77.428 253.787 77.908 253.667 78.388C253.643 78.532 253.571 78.676 253.451 78.82C253.355 78.94 253.223 79 253.055 79C250.487 79 247.919 78.988 245.351 78.964C242.783 78.916 240.215 78.892 237.647 78.892C236.879 78.892 236.099 78.928 235.307 79C234.539 79.048 233.771 79.072 233.003 79.072C232.883 79.072 232.763 79.036 232.643 78.964C232.547 78.868 232.499 78.76 232.499 78.64C232.499 78.496 232.535 78.364 232.607 78.244C232.679 78.1 232.799 78.028 232.967 78.028C233.471 78.028 233.951 78.004 234.407 77.956C234.863 77.884 235.235 77.716 235.523 77.452C235.835 77.164 235.991 76.708 235.991 76.084V55.42C235.991 54.868 235.823 54.508 235.487 54.34C235.151 54.148 234.743 54.052 234.263 54.052C234.023 54.052 233.795 54.064 233.579 54.088C233.363 54.088 233.147 54.088 232.931 54.088C232.739 54.088 232.571 54.04 232.427 53.944C232.283 53.848 232.211 53.692 232.211 53.476C232.211 53.284 232.247 53.116 232.319 52.972C232.391 52.828 232.547 52.756 232.787 52.756C233.195 52.756 233.591 52.768 233.975 52.792C234.383 52.816 234.779 52.828 235.163 52.828C237.587 52.828 240.011 52.816 242.435 52.792C244.859 52.744 247.271 52.72 249.671 52.72C250.775 52.72 251.867 52.684 252.947 52.612C253.043 53.308 253.163 54.004 253.307 54.7C253.451 55.396 253.571 56.092 253.667 56.788C253.715 56.932 253.751 57.076 253.775 57.22C253.799 57.34 253.811 57.472 253.811 57.616C253.811 57.856 253.727 58.024 253.559 58.12C253.415 58.216 253.235 58.264 253.019 58.264C252.827 58.264 252.683 58.228 252.587 58.156C252.515 58.06 252.443 57.916 252.371 57.724C251.915 56.284 251.303 55.288 250.535 54.736C249.791 54.184 248.651 53.908 247.115 53.908H239.627V64.744C240.563 64.744 241.499 64.744 242.435 64.744C243.371 64.72 244.319 64.684 245.279 64.636C246.263 64.588 247.175 64.504 248.015 64.384C248.879 64.24 249.791 64.084 250.751 63.916H250.787C250.931 63.916 251.003 63.976 251.003 64.096C251.003 64.264 250.931 64.564 250.787 64.996C250.643 65.428 250.535 65.716 250.463 65.86C250.343 66.148 250.151 66.292 249.887 66.292C249.287 66.292 248.663 66.256 248.015 66.184C247.391 66.088 246.767 66.04 246.143 66.04C245.711 66.016 245.279 66.016 244.847 66.04C244.415 66.04 243.971 66.04 243.515 66.04C243.347 66.04 243.167 66.04 242.975 66.04C242.807 66.016 242.627 66.004 242.435 66.004C242.075 66.004 241.679 66.04 241.247 66.112C240.815 66.16 240.431 66.304 240.095 66.544C239.783 66.76 239.627 67.12 239.627 67.624V76.264C239.627 77.08 239.831 77.56 240.239 77.704C240.647 77.824 241.187 77.884 241.859 77.884H244.739C245.411 77.884 246.155 77.848 246.971 77.776C247.811 77.704 248.627 77.548 249.419 77.308C250.211 77.068 250.859 76.72 251.363 76.264C251.915 75.76 252.299 75.208 252.515 74.608C252.755 73.984 253.031 73.36 253.343 72.736C253.463 72.52 253.655 72.412 253.919 72.412C254.183 72.412 254.315 72.556 254.315 72.844ZM271.229 78.352C271.229 78.448 271.217 78.58 271.193 78.748C271.169 78.892 271.085 78.964 270.941 78.964C270.653 78.964 270.365 78.952 270.077 78.928C269.813 78.904 269.537 78.892 269.249 78.892C268.073 78.82 266.873 78.784 265.649 78.784C265.121 78.784 264.593 78.796 264.065 78.82C263.537 78.844 263.009 78.868 262.481 78.892C262.241 78.916 261.989 78.94 261.725 78.964C261.485 78.988 261.233 79 260.969 79C260.777 79 260.681 78.88 260.681 78.64C260.681 78.472 260.693 78.316 260.717 78.172C260.741 78.028 260.861 77.956 261.077 77.956C261.317 77.956 261.545 77.968 261.761 77.992C261.977 77.992 262.205 77.992 262.445 77.992C262.733 77.992 263.069 77.92 263.453 77.776C263.861 77.632 264.065 77.392 264.065 77.056V54.7C264.065 54.292 263.909 54.028 263.597 53.908C263.285 53.764 262.913 53.692 262.481 53.692C262.073 53.692 261.689 53.704 261.329 53.728C260.993 53.728 260.801 53.668 260.753 53.548C260.729 53.5 260.717 53.392 260.717 53.224C260.717 53.128 260.729 53.02 260.753 52.9C260.777 52.756 260.849 52.684 260.969 52.684C261.761 52.684 262.553 52.708 263.345 52.756C264.161 52.804 264.965 52.828 265.757 52.828H267.377C267.761 52.828 268.145 52.828 268.529 52.828C268.937 52.828 269.333 52.816 269.717 52.792C269.909 52.768 270.089 52.756 270.257 52.756C270.449 52.732 270.629 52.72 270.797 52.72C271.061 52.72 271.193 52.852 271.193 53.116C271.193 53.26 271.181 53.392 271.157 53.512C271.133 53.632 271.025 53.692 270.833 53.692C270.545 53.692 270.257 53.692 269.969 53.692C269.705 53.668 269.429 53.656 269.141 53.656C268.853 53.656 268.541 53.752 268.205 53.944C267.893 54.112 267.737 54.364 267.737 54.7V77.056C267.737 77.368 267.881 77.596 268.169 77.74C268.457 77.884 268.745 77.956 269.033 77.956C269.345 77.956 269.645 77.956 269.933 77.956C270.245 77.932 270.557 77.92 270.869 77.92C271.109 77.92 271.229 78.064 271.229 78.352ZM299.996 70.864C299.996 71.032 299.984 71.212 299.96 71.404C299.936 71.572 299.9 71.752 299.852 71.944C299.684 73 299.54 74.08 299.42 75.184C299.324 76.264 299.18 77.332 298.988 78.388C298.988 78.508 298.94 78.616 298.844 78.712C298.676 78.856 298.472 78.928 298.232 78.928C297.056 78.928 295.88 78.916 294.704 78.892C293.528 78.868 292.34 78.856 291.14 78.856C289.676 78.856 288.212 78.856 286.748 78.856C285.308 78.856 283.856 78.88 282.392 78.928C281.576 78.952 280.772 78.976 279.98 79C279.188 79.048 278.384 79.072 277.568 79.072C277.28 79.072 277.136 78.904 277.136 78.568C277.136 78.232 277.304 78.064 277.64 78.064C277.88 78.064 278.108 78.076 278.324 78.1C278.564 78.1 278.792 78.1 279.008 78.1C279.344 78.1 279.68 78.04 280.016 77.92C280.376 77.776 280.556 77.512 280.556 77.128V55.852C280.556 55.372 280.544 54.976 280.52 54.664C280.496 54.328 280.376 54.076 280.16 53.908C279.968 53.74 279.596 53.656 279.044 53.656C278.804 53.656 278.576 53.668 278.36 53.692C278.144 53.716 277.916 53.728 277.676 53.728C277.484 53.728 277.364 53.68 277.316 53.584C277.268 53.464 277.244 53.32 277.244 53.152C277.244 53.008 277.256 52.888 277.28 52.792C277.328 52.672 277.436 52.612 277.604 52.612C278.396 52.612 279.176 52.624 279.944 52.648C280.736 52.672 281.528 52.684 282.32 52.684C283.232 52.684 284.156 52.672 285.092 52.648C286.028 52.624 286.952 52.612 287.864 52.612C288.032 52.612 288.128 52.672 288.152 52.792C288.2 52.888 288.224 52.996 288.224 53.116C288.224 53.212 288.2 53.332 288.152 53.476C288.128 53.596 288.032 53.656 287.864 53.656C287.552 53.656 287.24 53.656 286.928 53.656C286.64 53.632 286.34 53.62 286.028 53.62C285.644 53.62 285.26 53.668 284.876 53.764C284.492 53.86 284.3 54.16 284.3 54.664C284.3 55.504 284.288 56.344 284.264 57.184C284.264 58.024 284.264 58.864 284.264 59.704V70.324C284.264 71.38 284.264 72.448 284.264 73.528C284.288 74.608 284.3 75.676 284.3 76.732C284.3 77.14 284.468 77.44 284.804 77.632C285.14 77.8 285.524 77.896 285.956 77.92C286.388 77.944 286.748 77.956 287.036 77.956C288.092 77.956 289.148 77.932 290.204 77.884C291.26 77.836 292.304 77.728 293.336 77.56C294.008 77.44 294.644 77.212 295.244 76.876C295.868 76.516 296.408 76.072 296.864 75.544C297.464 74.848 297.92 74.104 298.232 73.312C298.544 72.496 298.856 71.68 299.168 70.864C299.24 70.696 299.324 70.6 299.42 70.576C299.516 70.552 299.636 70.54 299.78 70.54C299.852 70.54 299.9 70.588 299.924 70.684C299.972 70.756 299.996 70.816 299.996 70.864Z" fill="#414141"/>
</svg>
