<svg width="128" height="128" viewBox="0 0 128 128" fill="none" xmlns="http://www.w3.org/2000/svg">
<path fill-rule="evenodd" clip-rule="evenodd" d="M82.5 105C104.868 105 123 86.8675 123 64.5C123 42.1325 104.868 24 82.5 24C69.4073 24 57.7657 30.2126 50.3623 39.8508C58.5727 45.2035 64 54.4679 64 65C64 75.3102 58.799 84.4057 50.8774 89.8058C58.2995 99.0686 69.7071 105 82.5 105Z" fill="#FCE570"/>
<path fill-rule="evenodd" clip-rule="evenodd" d="M50.3623 39.8508C45.6565 36.7829 40.0365 35 34 35C17.4315 35 4 48.4315 4 65C4 81.5685 17.4315 95 34 95C40.2583 95 46.0691 93.0837 50.8774 89.8058C45.3225 82.8732 42 74.0746 42 64.5C42 55.2251 45.1177 46.6784 50.3623 39.8508Z" fill="#414141"/>
</svg>
